<svg xmlns="http://www.w3.org/2000/svg" width="42.7996" height="42.7996" viewBox="0 0 42.7996 42.7996">
<path d="M1 41.7996H41.7996V1H1Z" fill="#ff6a00"/>
<path d="M31.864 33.657H10.751c-1.265 0-2.277-.917-2.277-2.182v-2.531c0-1.265 1.028-2.182 2.277-2.182h21.113c1.265 0 2.293.917 2.293 2.182v2.531c-.016 1.265-1.028 2.182-2.293 2.182Zm-2.561-5.109a1.64 1.64 0 0 0-1.66 1.645 1.65 1.65 0 0 0 1.66 1.66 1.63 1.63 0 0 0 1.613-1.691 1.61 1.61 0 0 0-1.613-1.614Zm2.561-3.429H10.751c-1.265 0-2.277-.917-2.277-2.182v-2.531c0-1.265 1.028-2.182 2.277-2.182h21.113c1.265 0 2.293.917 2.293 2.182v2.531c-.016 1.265-1.028 2.182-2.293 2.182Zm-2.561-5.094a1.65 1.65 0 0 0-1.66 1.66 1.64 1.64 0 0 0 1.66 1.645 1.65 1.65 0 0 0 1.66-1.645 1.65 1.65 0 0 0-1.66-1.66Zm2.561-3.429H10.751c-1.265 0-2.277-.917-2.277-2.182v-2.531c0-1.265 1.028-2.182 2.277-2.182h21.113c1.265 0 2.293.917 2.293 2.182v2.531c-.016 1.265-1.028 2.182-2.293 2.182Zm-2.561-5.109a1.65 1.65 0 0 0-1.66 1.66 1.64 1.64 0 0 0 1.66 1.645 1.64 1.64 0 0 0 1.644-1.645 1.65 1.65 0 0 0-1.644-1.66Z" fill="#fff"/>
</svg>