<svg xmlns="http://www.w3.org/2000/svg" xmlns:xlink="http://www.w3.org/1999/xlink" xmlns:inkscape="http://www.inkscape.org/namespaces/inkscape" version="1.1" width="42.7999" height="42.7996" viewBox="0 0 42.7999 42.7996">
<g>
<g inkscape:groupmode="layer" inkscape:label="Layer 1">
<path transform="matrix(1,0,0,-1,1,41.7996)" d="M0 40.7996H40.7999V0H0Z" fill="#200866" fill-rule="evenodd"/>
<path transform="matrix(1,0,0,-1,1,41.7996)" d="M15.2512 25.5487H10.9052V12.5059H15.2512ZM15.2512 8.1598H32.6401V12.5059H15.2512ZM15.2512 25.5487H32.6401V29.8947H15.2512Z" fill="#8c52ff" fill-opacity=".302" fill-rule="evenodd"/>
<path transform="matrix(1,0,0,-1,1,41.7996)" d="M13.8762 26.9189H9.5304V13.8807H13.8762ZM13.8762 9.5349H31.265V13.8807H13.8762ZM13.8762 26.9189H31.265V31.2647H13.8762Z" fill="#8c52ff" fill-opacity=".502" fill-rule="evenodd"/>
<path transform="matrix(1,0,0,-1,1,41.7996)" d="M12.5062 28.2937H8.1601V15.251H12.5062ZM12.5062 10.9049H29.895V15.251H12.5062ZM12.5062 28.2937H29.895V32.6398H12.5062Z" fill="#8c52ff" fill-rule="evenodd"/>
</g>
</g>
</svg>
