<svg xmlns="http://www.w3.org/2000/svg" xmlns:xlink="http://www.w3.org/1999/xlink" xmlns:inkscape="http://www.inkscape.org/namespaces/inkscape" version="1.1" width="42.7999" height="42.7996" viewBox="0 0 42.7999 42.7996">
<g inkscape:groupmode="layer" inkscape:label="Layer 1">
<path transform="matrix(1,0,0,-1,1,41.7996)" d="M0 40.7996H40.7999V0H0Z" fill="#0080ff" fill-rule="evenodd"/>
<path transform="matrix(1,0,0,-1,1,41.7996)" d="M20.4009 8.1598V12.9039C25.4225 12.9039 29.3204 17.8838 27.3923 23.1687 26.6848 25.1246 25.1172 26.6922 23.1613 27.3997 17.8764 29.3139 12.8965 25.4299 12.8965 20.4083H8.1663C8.1663 28.4122 15.9066 34.6544 24.2989 32.0326 27.9609 30.8812 30.888 27.9683 32.0255 24.3062 34.647 15.9001 28.4187 8.1598 20.4009 8.1598" fill="#ffffff" fill-rule="evenodd"/>
<path transform="matrix(1,0,0,-1,1,41.7996)" d="M20.4148 12.89H15.6986V17.6063H20.4148Z" fill="#ffffff" fill-rule="evenodd"/>
<path transform="matrix(1,0,0,-1,1,41.7996)" d="M15.6986 9.2557H12.0643V12.89H15.6986Z" fill="#ffffff" fill-rule="evenodd"/>
<path transform="matrix(1,0,0,-1,1,41.7996)" d="M12.0643 12.89H9.0264V15.9279H12.0643Z" fill="#ffffff" fill-rule="evenodd"/>
</g>
</svg>
