<svg xmlns="http://www.w3.org/2000/svg" xmlns:xlink="http://www.w3.org/1999/xlink" xmlns:inkscape="http://www.inkscape.org/namespaces/inkscape" version="1.1" width="42.7999" height="42.7996" viewBox="0 0 42.7999 42.7996">
<g inkscape:groupmode="layer" inkscape:label="Layer 1">
<path transform="matrix(1,0,0,-1,1,41.7996)" d="M0 40.7996H40.7999V0H0Z" fill="#2560ff" fill-rule="evenodd"/>
<path transform="matrix(1,0,0,-1,1,41.7996)" d="M35.403 22.5828C34.6448 23.0944 32.6443 23.3135 31.1922 22.9207 31.11 24.3641 30.3701 25.5881 28.9998 26.6477L28.4975 26.9855 28.1594 26.4742C27.5017 25.4693 27.2186 24.1265 27.3192 22.9116 27.3923 22.1627 27.6571 21.3225 28.1594 20.7102 26.2687 19.6143 24.5239 19.8609 16.8058 19.8609H4.8946V19.3025C4.9314 17.464 5.3501 14.4967 7.2694 12.0419 7.507 11.7405 7.763 11.4483 8.0459 11.1651 9.7024 9.5085 12.1578 8.2766 15.7853 8.1598H16.8554C22.5958 8.3514 27.4961 11.6127 30.5161 19.1849 31.5391 19.1667 34.2431 19.0023 35.5674 21.5597 35.604 21.6054 35.9053 22.2358 35.9053 22.2358L35.403 22.5737ZM12.6771 24.1722H9.3249V20.8199H12.6771ZM17.0067 24.1722H13.6545V20.8199H17.0067ZM21.327 24.1722H17.9748V20.8199H21.327ZM25.6567 24.1722H22.3044V20.8199H25.6567ZM8.3475 24.1722H4.9952V20.8199H8.3475ZM12.6771 28.4105H9.3249V25.0583H12.6771ZM17.0067 28.4105H13.6545V25.0583H17.0067ZM21.327 28.4105H17.9748V25.0583H21.327ZM21.327 32.6395H17.9748V29.2873H21.327Z" fill="#ffffff" fill-rule="evenodd"/>
</g>
</svg>
