<svg xmlns="http://www.w3.org/2000/svg" xmlns:xlink="http://www.w3.org/1999/xlink" xmlns:inkscape="http://www.inkscape.org/namespaces/inkscape" version="1.1" width="42.7999" height="42.7996" viewBox="0 0 42.7999 42.7996">
<g inkscape:groupmode="layer" inkscape:label="Layer 1">
<path transform="matrix(1,0,0,-1,1,41.7996)" d="M0 40.7996H40.7999V0H0Z" fill="#002259" fill-rule="evenodd"/>
<path transform="matrix(1,0,0,-1,1,41.7996)" d="M13.6094 19.0375C13.0654 19.0375 12.5351 19.3774 12.3313 19.9213L8.2658 30.799C8.0073 31.506 8.3608 32.2809 9.068 32.5528 9.775 32.8113 10.55 32.4578 10.8218 31.7506L14.8876 20.8732C15.1458 20.1662 14.7923 19.391 14.0854 19.1191 13.9221 19.0647 13.7724 19.0375 13.6094 19.0375" fill="#fbbc04" fill-rule="evenodd"/>
<path transform="matrix(1,0,0,-1,1,41.7996)" d="M31.2854 19.0375C31.0136 19.0375 30.7281 19.1191 30.4832 19.296L19.1976 27.5085 21.6723 20.8732C21.9308 20.1662 21.5773 19.391 20.8701 19.1191 20.1631 18.8473 19.3881 19.2144 19.1163 19.9213L15.0642 30.799C14.8603 31.3563 15.0369 31.9955 15.5129 32.3626 15.9888 32.7297 16.6552 32.7297 17.1309 32.3762L32.074 21.4985C32.686 21.0498 32.8085 20.2068 32.3734 19.5951 32.1012 19.228 31.6933 19.0375 31.2718 19.0375Z" fill="#ea4335" fill-rule="evenodd"/>
<path transform="matrix(1,0,0,-1,1,41.7996)" d="M28.974 20.3973 19.184 13.2724 21.6723 19.9213C21.7267 20.0846 21.7539 20.234 21.7539 20.3973H18.9394L15.0506 9.9955C14.8467 9.4382 15.0233 8.799 15.4993 8.4319 15.7442 8.2414 16.0296 8.1601 16.3151 8.1601 16.6008 8.1601 16.8727 8.2414 17.1173 8.4183L32.074 19.296C32.4411 19.5678 32.6316 19.9757 32.6316 20.3973H28.9604Z" fill="#4285f4" fill-rule="evenodd"/>
<path transform="matrix(1,0,0,-1,1,41.7996)" d="M12.1544 20.3973 8.2522 9.9955C7.9937 9.2886 8.3472 8.5136 9.0544 8.2414 9.2174 8.1873 9.3671 8.1601 9.5304 8.1601 10.074 8.1601 10.6044 8.5 10.8085 9.0439L14.8876 19.9213C14.942 20.0846 14.9692 20.2476 14.9692 20.3973Z" fill="#34a853" fill-rule="evenodd"/>
</g>
</svg>
