<svg xmlns="http://www.w3.org/2000/svg" xmlns:xlink="http://www.w3.org/1999/xlink" xmlns:inkscape="http://www.inkscape.org/namespaces/inkscape" version="1.1" width="42.7999" height="42.7996" viewBox="0 0 42.7999 42.7996">
<g inkscape:groupmode="layer" inkscape:label="Layer 1">
<path transform="matrix(1,0,0,-1,1,41.7996)" d="M0 40.7996H40.7999V0H0Z" fill="#2e51ed" fill-rule="evenodd"/>
<path transform="matrix(1,0,0,-1,1,41.7996)" d="M14.0085 12.1819H13.7475L12.443 13.4864V13.7472L14.4431 15.7473H15.8346L16.0302 15.5517V14.1602Z" fill="#05bdba" fill-rule="evenodd"/>
<path transform="matrix(1,0,0,-1,1,41.7996)" d="M12.443 27.0306V27.2917L13.7475 28.5959H14.0085L16.0087 26.5958V25.2045L15.8346 25.0305H14.4431Z" fill="#05bdba" fill-rule="evenodd"/>
<path transform="matrix(1,0,0,-1,1,41.7996)" d="M23.9873 16.4214H22.0742L21.922 16.5736V21.0521C21.922 21.8565 21.6176 22.4651 20.6609 22.487 20.1609 22.5085 19.5956 22.487 19.0086 22.4651L18.9218 22.3781V16.5951L18.7696 16.4429H16.8565L16.7043 16.5951V24.2045L16.8565 24.3567H21.1609C22.8351 24.3567 24.1829 23.0085 24.1829 21.3347V16.5736Z" fill="#ffffff" fill-rule="evenodd"/>
<path transform="matrix(1,0,0,-1,1,41.7996)" d="M14.2693 19.2912H6.6385L6.4862 19.4431V21.3565L6.6385 21.5084H14.2693L14.4215 21.3565V19.4431Z" fill="#05bdba" fill-rule="evenodd"/>
<path transform="matrix(1,0,0,-1,1,41.7996)" d="M34.1617 19.2912H26.5309L26.3786 19.4431V21.3565L26.5309 21.5084H34.1617L34.314 21.3565V19.4431Z" fill="#05bdba" fill-rule="evenodd"/>
<path transform="matrix(1,0,0,-1,1,41.7996)" d="M19.2915 26.748V32.4876L19.4652 32.6398H21.3783L21.5306 32.4876V26.7698L21.3783 26.6176H19.4652Z" fill="#05bdba" fill-rule="evenodd"/>
<path transform="matrix(1,0,0,-1,1,41.7996)" d="M19.2915 8.312V14.0298L19.4434 14.182H21.3568L21.509 14.0298V8.312L21.3568 8.1598H19.4434Z" fill="#05bdba" fill-rule="evenodd"/>
</g>
</svg>
