<svg xmlns="http://www.w3.org/2000/svg" xmlns:xlink="http://www.w3.org/1999/xlink" xmlns:inkscape="http://www.inkscape.org/namespaces/inkscape" version="1.1" width="42.7999" height="42.7996" viewBox="0 0 42.7999 42.7996">
<g inkscape:groupmode="layer" inkscape:label="Layer 1">
<path transform="matrix(1,0,0,-1,1,41.7996)" d="M0 40.7996H40.7999V0H0Z" fill="#5016a1" fill-rule="evenodd"/>
<path transform="matrix(1,0,0,-1,1,41.7996)" d="M8.2715 22.1638C8.2134 21.7545 8.1763 21.3452 8.1601 20.9313H26.754C26.6845 21.058 26.6043 21.1751 26.5147 21.2865 23.3376 25.3936 21.6266 25.0376 19.1786 25.1382 18.3654 25.1762 17.8132 25.187 14.567 25.187 12.8248 25.187 10.9383 25.1816 9.1001 25.1762 8.8617 24.5327 8.6335 23.9114 8.5218 23.4068H18.0473V22.1638ZM26.9019 19.6886H8.1709C8.1913 19.3581 8.2242 19.0344 8.2661 18.7106H25.5586C26.3285 18.7106 26.7647 19.1458 26.9019 19.6886ZM9.2387 15.3269C9.2387 15.3269 12.1011 8.282 20.3893 8.1598 25.3352 8.1598 29.5909 11.103 31.5247 15.3269Z" fill="#ffffff" fill-rule="evenodd"/>
<path transform="matrix(1,0,0,-1,1,41.7996)" d="M20.3893 32.6398C15.8102 32.6398 11.825 30.1266 9.7214 26.4084 11.363 26.4138 14.567 26.4138 14.567 26.4138 18.3492 26.4138 18.4932 26.3976 19.2319 26.3713L19.6929 26.3497C21.2814 26.2964 23.2424 26.1266 24.7887 24.9585 25.6224 24.3261 26.8328 22.928 27.5508 21.9353 28.22 21.0158 28.4117 19.9593 27.9601 18.9445 27.54 18.0142 26.6426 17.4569 25.5586 17.4569H8.5586C8.5586 17.4569 8.6593 17.0269 8.8089 16.5535H32.0131C32.4278 17.7914 32.6398 19.0877 32.6398 20.3944 32.6398 27.1579 27.1579 32.6398 20.3893 32.6398" fill="#ffffff" fill-rule="evenodd"/>
</g>
</svg>
