<svg xmlns="http://www.w3.org/2000/svg" xmlns:xlink="http://www.w3.org/1999/xlink" xmlns:inkscape="http://www.inkscape.org/namespaces/inkscape" version="1.1" width="42.7999" height="42.7996" viewBox="0 0 42.7999 42.7996">
<g inkscape:groupmode="layer" inkscape:label="Layer 1">
<path transform="matrix(1,0,0,-1,1,41.7996)" d="M0 40.7996H40.7999V0H0Z" fill-rule="evenodd"/>
<path transform="matrix(1,0,0,-1,1,41.7996)" d="M32.637 26.8313C32.6333 26.915 32.6262 26.9969 32.6188 27.0805 32.6171 27.1006 32.6171 27.1225 32.6134 27.1423 32.6081 27.1933 32.6007 27.2424 32.5933 27.2934 32.5862 27.3461 32.5806 27.3971 32.5735 27.4479 32.5678 27.4844 32.5607 27.5207 32.5534 27.5553 32.5426 27.6191 32.5315 27.6846 32.5188 27.7481 32.5077 27.7991 32.4952 27.8481 32.4842 27.8991 32.4734 27.9482 32.4624 27.9955 32.4513 28.0446 32.4388 28.0956 32.4224 28.1446 32.4077 28.1957 32.3949 28.243 32.3824 28.2883 32.3677 28.3357 32.3512 28.3867 32.3331 28.4374 32.315 28.4885 32.3005 28.5321 32.2858 28.5758 32.2713 28.6194 32.2475 28.6832 32.222 28.745 32.1985 28.8068 32.1857 28.8377 32.1749 28.8669 32.1622 28.8978 32.133 28.965 32.1038 29.0305 32.0729 29.0959 32.0621 29.1197 32.0511 29.1453 32.04 29.1688 32.0111 29.2306 31.9782 29.2907 31.9473 29.3508 31.9329 29.378 31.9201 29.4052 31.9054 29.4327 31.8691 29.4999 31.8291 29.5673 31.7908 29.6328 31.7798 29.651 31.7707 29.6691 31.7599 29.6872 31.718 29.7564 31.6743 29.8236 31.629 29.8911 31.6196 29.9055 31.6106 29.9203 31.6015 29.9347 31.5471 30.0146 31.4906 30.0949 31.4323 30.1731 31.3778 30.2457 31.3214 30.3185 31.263 30.3894 31.2593 30.3951 31.2557 30.4004 31.2503 30.4058 30.1255 31.7684 28.4275 32.6341 26.5258 32.6361V32.6398L26.5204 32.6361H26.5221C25.9943 32.6361 25.4812 32.5687 24.9917 32.4434 24.6986 32.3685 24.4128 32.2705 24.1381 32.1559 24.0471 32.1177 23.9562 32.0757 23.8669 32.034 22.0598 31.1644 20.7493 29.4327 20.4599 27.3733H20.4565C20.3289 26.4912 20.058 25.6561 19.6719 24.8885H19.6846C18.3416 22.2253 15.5826 20.397 12.3942 20.397 10.9709 20.397 9.6352 20.7609 8.4705 21.3993 8.3339 21.4739 8.1683 21.3758 8.1683 21.221V20.397H8.1556V8.1598H20.4001V14.2795H20.4129V17.3392C20.4129 19.029 21.7831 20.399 23.4737 20.399H26.5348C27.059 20.399 27.5669 20.4661 28.0528 20.5917 28.3456 20.6683 28.6313 20.7646 28.9063 20.8791 28.9973 20.9174 29.0883 20.9591 29.1773 21.001 31.0501 21.9033 32.3932 23.7314 32.6134 25.8908 32.6333 26.0963 32.6443 26.3055 32.6443 26.5167 32.6443 26.6221 32.6426 26.7276 32.637 26.8313" fill="#ffffff"/>
</g>
</svg>
